<svg xmlns="http://www.w3.org/2000/svg" width="140" height="47" viewBox="0 0 310 103.188">
<g id="logo">
<path fill="#F39522" d="M.025.038c95.35-.05 190.698 0 286.047-.024 7.443-.272 14.818 3.528 19.094 9.637 3.178 4.34 4.817 9.72 4.834 15.09-.023 15.53.018 31.06-.02 46.59-95.243.05-190.49 0-285.737.03-4.655.03-9.385-1.1-13.27-3.75C4.18 63.16.046 55.12.006 47.01c.01-15.66-.03-31.32.02-46.97"/>
<path fill="#474649" d="M76.376 78.24c2.496-2.428 5.903-4.012 9.41-3.93 74.72-.004 149.44.006 224.16-.004-.01 4.934 0 9.866-.003 14.797.034 5.958-4.02 11.773-9.734 13.494-2.14.773-4.44.555-6.66.582-73.81 0-147.61-.01-221.41 0 .01-4.82.01-9.63 0-14.45-.12-3.89 1.54-7.73 4.22-10.5"/>
<path fill="#FBF9F6" d="M44.065 11.505c1.927-.98 4.172-.605 6.25-.65.143.13.43.397.57.53.022 16.14-.016 32.28.022 48.424-3.326.76-6.77.58-10.15.38-.65-.03-1.42-.16-1.633-.89-3.95-8.23-7.78-16.51-11.715-24.75-1.95-4.01-3.61-8.16-5.41-12.25.27 6.06.66 12.12.71 18.19 0 6.5-.02 13 0 19.5-2.95.52-5.96.42-8.92.04-.01-16.23-.03-32.45.01-48.67 3.71-.63 7.49-.58 11.21-.13 4.16 8.82 8.26 17.68 12.41 26.52 1.76 3.79 3.29 7.7 5.11 11.47-.11-5.33-.51-10.63-.5-15.95-.11-5.6-.07-11.19-.05-16.79 0-1.82.33-4.01 2.05-5.01m85.33-.31c3.09-.41 6.23-.37 9.33.04.03 16.27.02 32.54 0 48.81-3.09.44-6.21.35-9.32.09-.29-1.86-.16-3.75-.18-5.62-.01-13.69 0-27.38-.01-41.07 0-.75.07-1.5.16-2.25m87.63.17c1.81-.78 3.86-.53 5.78-.51.81-.08.76.99.79 1.55v42.1c.01 1.79.06 3.6-.18 5.39-3.7.67-7.49.47-11.22.17-2.84-5.92-5.62-11.88-8.44-17.82-2.81-6.03-5.81-11.98-8.22-18.19-.24-.6-.52-1.18-.81-1.76-.03 2.87.39 5.71.42 8.58.47 9.65.25 19.33.32 29-2.91.76-5.97.47-8.93.16-.03-16.24-.04-32.47 0-48.7 3.71-.59 7.49-.58 11.21-.11 4.32 9.24 8.68 18.47 12.96 27.73 1.55 3.39 2.89 6.87 4.56 10.2-.06-3.47-.23-6.93-.4-10.4-.21-7.53-.1-15.07-.12-22.6-.02-1.82.45-4 2.26-4.82m56.27-.15c1.11-.56 2.38-.39 3.59-.4 1.48.01 3.08.1 4.29 1.05 1.38 1.09 1.75 2.98 1.78 4.66.02 11.85-.03 23.7.03 35.54 6.54-.38 13.09-.18 19.64-.2-.108 2.12-.06 4.48-1.39 6.25-1.34 1.67-3.61 2.11-5.64 2.05-5.56-.03-11.12-.01-16.68-.01-1.79.033-3.7-.72-4.67-2.297-.71-1.09-.89-2.42-.92-3.7-.03-14.32.03-28.64-.03-42.956m-181.61 0c11.25.036 22.5 0 33.76.02.51 1.86.85 3.89.26 5.77-.39 1.18-1.55 1.9-2.71 2.12-3.24.56-6.52-.02-9.77.14.06 13.6.01 27.19.02 40.79-3.03.37-6.12.48-9.15.01-.56-.41-.35-1.17-.42-1.763.05-13.01-.07-26.03.06-39.04-4.09-.09-8.2.4-12.27-.1-.27-2.64-.53-5.34.21-7.94M181.74 24.6c-1.173-4.09-3.42-7.962-6.82-10.57-4.62-3.71-10.94-4.316-16.6-3.45-5.21.88-9.97 4.19-12.506 8.87-3.37 6.13-4.05 13.416-3.45 20.29.57 5.91 2.36 12.09 6.77 16.28 3.63 3.56 8.81 5.12 13.81 4.91 5.35.216 10.822-1.9 14.372-5.99 3.423-3.9 4.985-9.08 5.59-14.16.553-5.4.355-10.94-1.16-16.18m-8.65 13.49c-.22 4.07-.706 8.42-3.14 11.83-3.097 4.48-10.458 4.75-13.956.637-1.77-2.006-2.62-4.65-3.11-7.24-.703-3.87-.754-7.835-.5-11.754.366-3.48.91-7.134 2.946-10.073 1.19-1.71 2.99-2.99 5.02-3.45 3.1-.71 6.7-.02 8.9 2.43 2.36 2.64 3.22 6.28 3.62 9.72.15 2.62.57 5.25.21 7.88M82.45 14.45c-.34-1.032-.614-2.092-1.072-3.08-3.577-.62-7.297-.635-10.875-.025-.57.996-.812 2.13-1.187 3.207-4.875 14.772-9.714 29.56-14.598 44.333-.18.42.014.96.514 1.01 2.49.714 5.155.65 7.702.34.878.048.932-.923 1.16-1.54.925-3.202 1.914-6.384 2.846-9.59 5.59-.306 11.198-.01 16.794-.16.827 2.45 1.507 4.95 2.31 7.41.504 1.47 1.2 3.09 2.71 3.76 1.954.837 4.142.392 6.174.157.684-.275 1.36-.562 2.03-.873-4.814-14.99-9.68-29.96-14.51-44.95M69.413 41.33c1.38-4.99 3.058-9.89 4.33-14.91.6-2.08.96-4.226 1.648-6.283 1.27 3.93 2.17 7.974 3.39 11.924.88 3.09 1.87 6.15 2.64 9.26-4-.07-8-.08-12 .01M254.51 12.4c-.215-.36-.21-1.06-.738-1.1-3.52-.602-7.11-.406-10.64-.044-5.253 15.854-10.44 31.732-15.677 47.595-.38.78.54 1.14 1.15 1.24 2.523.53 5.14.42 7.687.07 1.25-3.64 2.275-7.37 3.366-11.07 5.57-.29 11.155.04 16.73-.17.856 2.17 1.395 4.44 2.112 6.66.563 1.88 1.396 4.11 3.454 4.73 2.57.65 5.338.19 7.74-.87-5.04-15.68-10.127-31.34-15.183-47.01m-12.37 28.93c.88-3.44 2.08-6.78 3.02-10.2 1.06-3.65 2-7.33 2.9-11.03.36.79.58 1.62.83 2.45 1.55 6.32 3.62 12.48 5.26 18.77-4-.05-8-.09-11.99.03M95.57 79.78c.733-.438 1.58-.747 2.443-.6.89.296 1.374 1.16 1.836 1.92.91 1.57 1.9 3.09 2.81 4.662 1.19-1.985 2.37-3.97 3.59-5.935.64-1.17 2.23-.455 3.24-.318-1.74 2.93-3.55 5.81-5.34 8.7 1.98 3.15 3.91 6.34 5.86 9.51-.8.31-1.62.74-2.51.56-.76-.18-1.2-.86-1.58-1.48-1.23-2.01-2.47-4.02-3.7-6.03-1.59 2.43-2.88 5.06-4.59 7.41-.95.19-1.92-.01-2.85-.21 1.9-3.27 3.92-6.47 5.92-9.67-1.72-2.85-3.53-5.65-5.16-8.54m61.03 3.15c.61-2.38 3.05-3.81 5.39-3.9 2.22-.1 4.53.34 6.46 1.49-.16.82-.59 1.54-1.02 2.25-1.97-.79-4.16-1.75-6.3-1.07-1.54.45-2.42 2.61-1.09 3.78 2.33 1.79 5.63 2.01 7.64 4.29 1.36 1.44 1.49 3.69.76 5.46-.62 1.49-2.06 2.48-3.57 2.9-3.19.79-6.69.09-9.38-1.81.34-.77.73-1.52 1.16-2.24 1.88.9 3.82 2.02 5.98 1.84 1.4.08 3.13-.86 3.14-2.42.11-1.51-1.26-2.53-2.5-3.04-2.01-1-4.4-1.52-5.93-3.29-1.03-1.16-1.02-2.82-.77-4.26m16.93-3.07c2.91-1.57 6.39-.72 9.27.48-.01.92-.45 1.73-.98 2.45-1.83-.82-3.84-1.63-5.88-1.19-1.3.27-2.47 1.64-2 3 .41 1.15 1.65 1.57 2.66 2.05 1.88.89 4.04 1.46 5.51 3.04 1.85 1.97 1.6 5.45-.43 7.2-1.56 1.38-3.75 1.65-5.74 1.53-2.127-.08-4.11-.94-5.92-1.98.23-.84.563-1.67 1.2-2.28 1.74.73 3.43 1.83 5.39 1.76 1.31.12 2.9-.32 3.48-1.63.55-.98.01-2.18-.76-2.86-2.38-1.86-5.88-2.02-7.75-4.58-1.6-2.33-.47-5.76 1.96-7.01m20.79.03c3.15-1.74 7.99-.98 9.67 2.48.37.98.8 2.24.08 3.17-.57.8-1.67.34-2.48.45-.13-1.3-.28-2.75-1.3-3.69-1.61-1.35-4.456-1.12-5.59.76-1.056 1.69-1.208 3.75-1.25 5.69.044 2.06.222 4.35 1.72 5.91.982 1.13 2.64 1.5 4.04 1.05 1.366-.29 2.48-1.16 3.63-1.9.66.49 1.12 1.18 1.56 1.86-2.06 1.94-4.904 3.034-7.73 2.754-1.927-.11-3.757-1.24-4.72-2.915-1.556-2.5-1.72-5.57-1.51-8.435.21-2.77 1.34-5.77 3.87-7.18m96.934 3.65c.35-2.32 2.44-4.08 4.69-4.41 2.48-.43 4.97.264 7.25 1.214-.01.93-.45 1.74-1.04 2.43-2-.91-4.393-1.87-6.54-.91-1.44.57-1.94 2.73-.64 3.71 2.275 1.6 5.29 1.933 7.317 3.93 1.89 1.83 1.925 5.17.07 7.034-1.495 1.69-3.93 1.99-6.06 1.87-2.11-.09-4.08-.934-5.885-1.98.197-.843.51-1.88 1.35-2.25 2.064 1.146 4.407 2.15 6.81 1.62.774-.24 1.54-.71 1.86-1.493.62-1.11-.11-2.49-1.073-3.133-1.99-1.32-4.47-1.75-6.38-3.23-1.32-1.01-2.07-2.763-1.72-4.42M82.16 96.27c0-5.64-.03-11.27.016-16.91 3.735-.01 7.476 0 11.212 0-.02.84-.05 1.68-.12 2.53h-8.21c.01 1.84 0 3.68.01 5.53 2.28-.11 4.56-.04 6.84-.06.06.8.08 1.62.02 2.43-2.28.02-4.56.01-6.84 0-.01 1.94 0 3.88-.01 5.81 2.98-.06 5.96-.02 8.93-.03-.16.92-.2 2.41-1.44 2.47-2.93.15-5.88.05-8.82.06-1.04.12-1.65-.9-1.57-1.83m60.4-16.89c3.74-.05 7.48 0 11.22-.02 0 .85-.01 1.69-.04 2.53-2.77.01-5.55 0-8.33.01.03 1.85.03 3.69.01 5.54 2.32-.11 4.64-.04 6.95-.06.02.81.03 1.62.02 2.43h-6.95c0 1.93.02 3.86-.02 5.79 2.99-.03 5.98-.02 8.97-.01-.22.8-.08 1.95-1 2.33-.74.3-1.56.17-2.34.2-2.37-.055-4.74.06-7.1-.045-.92 0-1.5-.967-1.38-1.82.02-5.62.01-11.25.01-16.88m111.91-.066c1-.12 2.01-.13 3.01 0 .01 6.28.02 12.55 0 18.83-1 .13-2.02.13-3.02 0 .02-6.28.01-12.56.01-18.83m7.26.1c3.74-.15 7.48-.02 11.23-.07.09.85.02 1.7-.13 2.54h-8.18v5.53c2.28-.12 4.56-.04 6.85-.06.04.81.06 1.62.03 2.43-2.29-.01-4.59.02-6.87-.03v5.83c2.95-.055 5.91-.01 8.87-.02-.017.96-.19 2.44-1.417 2.484-2.93.12-5.87.05-8.8.04-1.04.13-1.62-.89-1.55-1.81-.02-5.62.01-11.25-.01-16.87m-140.64.44c-2.81-1.15-5.91-.49-8.84-.48-.02 6.27-.01 12.54 0 18.81.92.07 1.84.07 2.76-.01.02-2.22 0-4.45.01-6.67 2.21-.06 4.63.33 6.61-.91 1.84-1.03 2.68-3.25 2.6-5.29.08-2.21-1.01-4.58-3.13-5.44m-.69 8.13c-1.28 1.67-3.6.96-5.39 1.135V81.6c1.66.08 3.54-.34 4.98.71 1.47 1.45 1.5 4.02.4 5.697m16.85 3.35c-.29-.623-.84-1.064-1.38-1.445 2.214-.864 3.61-3.26 3.28-5.63-.03-2.19-1.64-4.19-3.75-4.715-2.78-.688-5.67-.22-8.49-.16 0 6.25.006 12.504 0 18.752.985.12 1.99.12 2.98-.02-.02-2.52.01-5.03-.023-7.55 1.35.06 2.96-.36 4.04.69 1.66 2.09 1.44 5.26 3.5 7.06.97.04 1.87-.28 2.69-.78-1.5-1.79-1.82-4.18-2.85-6.22m-3.24-3.32c-1.37.18-2.76.05-4.142.14.03-2.2.02-4.4.01-6.59 1.41.08 2.87-.17 4.25.19 2.76.78 2.69 5.57-.11 6.24m152.55 3c-.254-.51-.754-.8-1.193-1.1.52-.29 1.07-.55 1.54-.94 2.8-2.35 2.28-7.72-1.22-9.13-2.95-1.15-6.17-.44-9.23-.48-.03 6.21-.07 12.43.02 18.64.84.54 1.93.13 2.87.14-.01-2.52-.01-5.05 0-7.57 1.42.07 3.24-.39 4.25.94 1.21 1.91 1.44 4.31 2.67 6.21.85 1.1 2.34.45 3.29-.16-1.51-1.94-1.83-4.46-3.02-6.57m-2.94-3.02c-1.42.25-2.865.06-4.29.18.055-2.19.02-4.38.02-6.57 1.74.12 3.746-.448 5.26.69 1.71 1.48 1.38 5.05-.986 5.7m-51.49 1.9c.93-.49 1.83-1.09 2.42-1.986 1.106-1.7 1.12-3.994.255-5.798-.722-1.498-2.252-2.465-3.86-2.71-2.58-.44-5.203-.08-7.8 0 .007 6.26-.01 12.51.01 18.76.93.09 1.86.16 2.79 0 .35-2.48.05-5.05.14-7.57 1.35.08 2.98-.36 4.06.69 1.63 2.11 1.48 5.22 3.48 7.08.98.05 1.9-.27 2.73-.79-2.06-2.18-1.68-5.85-4.2-7.67m-1.88-1.9c-1.39.2-2.81.06-4.2.19.026-2.2.01-4.4.01-6.6 1.59.1 3.28-.26 4.79.39 2.23 1.23 2.01 5.39-.593 6.04m17.44 1.9c2.62-.96 3.92-4.04 3.15-6.68-.41-1.89-2.04-3.37-3.91-3.74-2.69-.56-5.45-.16-8.17-.07 0 6.26-.01 12.51 0 18.76.98.11 1.98.11 2.96-.04-.03-2.52-.01-5.03-.02-7.55 1.38.09 3.15-.36 4.17.86 1.25 1.92 1.49 4.32 2.68 6.27.86 1.18 2.4.43 3.4-.13-2.096-2.17-1.64-5.95-4.266-7.67m-1.82-1.88c-1.39.18-2.79.05-4.17.15.02-2.2.01-4.39 0-6.59 1.61.03 3.25-.13 4.82.32 2.1 1.41 1.98 5.43-.66 6.12m-31.07-8.64c-1.13-.22-2.285-.2-3.41-.02-2.015 6.25-4.14 12.47-6.21 18.7.9.16 1.83.2 2.75.257.62-1.56 1.06-3.18 1.59-4.774 2.27.04 4.55.03 6.82.01.515 1.34.787 2.76 1.396 4.06.64 1.15 2.143.67 3.15.387-2.02-6.22-4.12-12.4-6.09-18.63m-4.59 11.77c.96-2.79 1.91-5.59 2.55-8.47l.24-.34c.723 2.98 1.68 5.9 2.66 8.805-1.82-.01-3.64-.01-5.45 0"/>
</g>
</svg>
